# xmcd
#
# Track frame offsets: 
#        150
#        15124
#        27964
#        41262
#        42899
#        57540
#        72906
#        84534
#        94004
#        106042
#        107400
#        121040
#        131876
#        133466
#        145240
#        161494
#        173740
#        174698
#        187501
#        189792
#
# Disc length: 2657 seconds
#
# Revision: 1
# Processed by: cddbd v1.5.2PL0 Copyright (c) Steve Scherf et al.
# Submitted via: ExactAudioCopy v0.95b4
#
DISCID=fa0a5f14
DTITLE=Léonie Sazias - Wondertjes aan huis - De nieuwe avonturen van H
DTITLE=aasje en Rammelaar
DYEAR=2003
DGENRE=Pop
TTITLE0=Dol op drop
TTITLE1=Spookpartijtje
TTITLE2=Brrrrrrr wat gezellig
TTITLE3=De kip en het ei
TTITLE4=Seizoenen
TTITLE5=Weerman
TTITLE6=Mag het weer mooi weer zijn
TTITLE7=Stroomstoring
TTITLE8=Wondertjes aan huis
TTITLE9=Dichtzin
TTITLE10=Kusje voor de nacht
TTITLE11=Pas op voor de trap
TTITLE12=Regen
TTITLE13=Zonneschijntje
TTITLE14=Modeshow
TTITLE15=Juffrouw Rommelkont
TTITLE16=Vliegende Rammelaar
TTITLE17=In een tekenfilm
TTITLE18=Altijd
TTITLE19=Morgen is er weer een dag
EXTD=
EXTT0=
EXTT1=
EXTT2=
EXTT3=
EXTT4=
EXTT5=
EXTT6=
EXTT7=
EXTT8=
EXTT9=
EXTT10=
EXTT11=
EXTT12=
EXTT13=
EXTT14=
EXTT15=
EXTT16=
EXTT17=
EXTT18=
EXTT19=
PLAYORDER=
